<?xml version="1.0" encoding="UTF-8" standalone="no"?>
<!-- Created with Inkscape (http://www.inkscape.org/) -->

<svg
   xmlns:dc="http://purl.org/dc/elements/1.1/"
   xmlns:cc="http://creativecommons.org/ns#"
   xmlns:rdf="http://www.w3.org/1999/02/22-rdf-syntax-ns#"
   xmlns:svg="http://www.w3.org/2000/svg"
   xmlns="http://www.w3.org/2000/svg"
   xmlns:sodipodi="http://sodipodi.sourceforge.net/DTD/sodipodi-0.dtd"
   xmlns:inkscape="http://www.inkscape.org/namespaces/inkscape"
   id="svg2"
   version="1.1"
   inkscape:version="0.91 r13725"
   xml:space="preserve"
   width="425.97809"
   height="171.83127"
   viewBox="0 0 425.97809 171.83127"
   sodipodi:docname="supported_by_apperta.svg"><title
     id="title4243">Supported By Apperta</title><metadata
     id="metadata8"><rdf:RDF><cc:Work
         rdf:about=""><dc:format>image/svg+xml</dc:format><dc:type
           rdf:resource="http://purl.org/dc/dcmitype/StillImage" /><dc:title>Supported By Apperta</dc:title><dc:creator><cc:Agent><dc:title>Marcus Baw</dc:title></cc:Agent></dc:creator><dc:rights><cc:Agent><dc:title>CC-BY-SA-NC</dc:title></cc:Agent></dc:rights><dc:date>2018.02.22</dc:date><cc:license
           rdf:resource="http://creativecommons.org/licenses/by-nc-sa/3.0/" /></cc:Work><cc:License
         rdf:about="http://creativecommons.org/licenses/by-nc-sa/3.0/"><cc:permits
           rdf:resource="http://creativecommons.org/ns#Reproduction" /><cc:permits
           rdf:resource="http://creativecommons.org/ns#Distribution" /><cc:requires
           rdf:resource="http://creativecommons.org/ns#Notice" /><cc:requires
           rdf:resource="http://creativecommons.org/ns#Attribution" /><cc:prohibits
           rdf:resource="http://creativecommons.org/ns#CommercialUse" /><cc:permits
           rdf:resource="http://creativecommons.org/ns#DerivativeWorks" /><cc:requires
           rdf:resource="http://creativecommons.org/ns#ShareAlike" /></cc:License></rdf:RDF></metadata><defs
     id="defs6" /><sodipodi:namedview
     pagecolor="#ffffff"
     bordercolor="#666666"
     borderopacity="1"
     objecttolerance="10"
     gridtolerance="10"
     guidetolerance="10"
     inkscape:pageopacity="0"
     inkscape:pageshadow="2"
     inkscape:window-width="1655"
     inkscape:window-height="800"
     id="namedview4"
     showgrid="false"
     fit-margin-top="0"
     fit-margin-left="0"
     fit-margin-bottom="0"
     fit-margin-right="0"
     inkscape:zoom="1.4165037"
     inkscape:cx="237.47867"
     inkscape:cy="89.228784"
     inkscape:window-x="0"
     inkscape:window-y="27"
     inkscape:window-maximized="0"
     inkscape:current-layer="g10" /><g
     id="g10"
     inkscape:groupmode="layer"
     inkscape:label="ink_ext_XXXXXX"
     transform="matrix(1.25,0,0,-1.25,96.360364,159.21933)"><g
       id="g4194"><rect
         ry="18.509054"
         transform="scale(1,-1)"
         y="-126.40744"
         x="-76.12027"
         height="135.52898"
         width="338.84644"
         id="rect4192"
         style="fill:#ffffff;fill-opacity:1;stroke:#393536;stroke-width:1.93604231;stroke-linejoin:round;stroke-miterlimit:4;stroke-dasharray:none;stroke-opacity:1" /><g
         transform="scale(0.1,0.1)"
         id="g12"><path
           inkscape:connector-curvature="0"
           id="path14"
           style="fill:#393536;fill-opacity:1;fill-rule:nonzero;stroke:none"
           d="m 106.746,469.309 71.152,0 -35.574,213.488 -35.578,-213.488 z M 0,291.41 l 106.746,498.125 71.152,0 106.75,-498.125 -71.164,0 -26.687,124.531 -88.9454,0 L 71.1602,291.41 0,291.41" /><path
           inkscape:connector-curvature="0"
           id="path16"
           style="fill:#393536;fill-opacity:1;fill-rule:nonzero;stroke:none"
           d="m 434.473,344.777 c 7.597,0 13.945,2.786 19.043,8.34 5.097,5.559 8.797,13.488 11.125,23.77 2.312,10.285 3.882,20.468 4.714,30.578 0.84,10.098 1.258,21.914 1.258,35.437 l -0.554,46.985 c 0,8.34 -0.047,15.047 -0.149,20.144 -0.086,5.102 -0.406,11.856 -0.965,20.293 -0.554,8.43 -1.347,15.332 -2.363,20.715 -1.023,5.371 -2.551,11.301 -4.59,17.789 -2.043,6.485 -4.492,11.582 -7.363,15.285 -2.883,3.707 -6.582,6.856 -11.121,9.453 -4.543,2.594 -9.68,3.895 -15.422,3.895 -2.781,0 -5.43,-0.188 -7.93,-0.559 -2.5,-0.371 -5.097,-0.972 -7.785,-1.804 -2.683,-0.836 -4.91,-1.578 -6.668,-2.223 -1.758,-0.656 -4.031,-1.719 -6.808,-3.199 -2.782,-1.485 -4.774,-2.547 -5.973,-3.199 -1.211,-0.649 -3.293,-1.899 -6.262,-3.75 -2.961,-1.856 -4.812,-2.965 -5.555,-3.332 l 0,-220.165 c 16.305,-9.636 34.09,-14.453 53.368,-14.453 z m -124.532,-160.105 0,462.543 71.164,0 0,-35.578 c 5.743,6.117 9.723,10.285 11.954,12.508 2.222,2.226 6.062,5.648 11.531,10.281 5.469,4.637 10.195,7.879 14.18,9.734 3.984,1.852 9.082,3.656 15.293,5.418 6.203,1.758 12.648,2.641 19.316,2.641 12.043,0 22.793,-2.18 32.246,-6.531 9.441,-4.356 17.227,-9.59 23.352,-15.704 6.113,-6.117 11.296,-14.875 15.566,-26.269 4.258,-11.399 7.449,-21.731 9.59,-30.996 2.129,-9.27 3.75,-21.778 4.859,-37.531 1.113,-15.75 1.762,-28.485 1.946,-38.219 0.183,-9.731 0.273,-23.117 0.273,-40.168 l 0,-5.285 c 0,-15.567 -0.781,-30.575 -2.363,-45.028 -1.575,-14.453 -4.446,-29.14 -8.614,-44.054 -4.171,-14.922 -9.453,-27.848 -15.839,-38.778 -6.399,-10.937 -14.922,-19.875 -25.579,-26.828 -10.652,-6.949 -22.839,-10.418 -36.55,-10.418 -24.09,0 -47.813,12.313 -71.161,36.961 l 0,-138.699 -71.164,0" /><path
           inkscape:connector-curvature="0"
           id="path18"
           style="fill:#393536;fill-opacity:1;fill-rule:nonzero;stroke:none"
           d="m 701.516,344.777 c 7.593,0 13.945,2.786 19.043,8.34 5.093,5.559 8.796,13.488 11.121,23.77 2.312,10.285 3.886,20.468 4.715,30.578 0.839,10.098 1.261,21.914 1.261,35.437 l -0.554,46.985 c 0,8.34 -0.051,15.047 -0.149,20.144 -0.09,5.102 -0.41,11.856 -0.969,20.293 -0.554,8.43 -1.343,15.332 -2.363,20.715 -1.023,5.371 -2.547,11.301 -4.59,17.789 -2.039,6.485 -4.488,11.582 -7.359,15.285 -2.883,3.707 -6.582,6.856 -11.125,9.453 -4.539,2.594 -9.68,3.895 -15.418,3.895 -2.785,0 -5.434,-0.188 -7.934,-0.559 -2.5,-0.371 -5.093,-0.972 -7.781,-1.804 -2.684,-0.836 -4.91,-1.578 -6.672,-2.223 -1.758,-0.656 -4.031,-1.719 -6.804,-3.199 -2.786,-1.485 -4.778,-2.547 -5.977,-3.199 -1.211,-0.649 -3.289,-1.899 -6.262,-3.75 -2.957,-1.856 -4.812,-2.965 -5.554,-3.332 l 0,-220.165 c 16.308,-9.636 34.089,-14.453 53.371,-14.453 z M 576.98,184.672 l 0,462.543 71.165,0 0,-35.578 c 5.742,6.117 9.726,10.285 11.953,12.508 2.226,2.226 6.062,5.648 11.535,10.281 5.469,4.637 10.191,7.879 14.18,9.734 3.984,1.852 9.082,3.656 15.292,5.418 6.2,1.758 12.645,2.641 19.317,2.641 12.039,0 22.793,-2.18 32.246,-6.531 9.441,-4.356 17.227,-9.59 23.348,-15.704 6.113,-6.117 11.297,-14.875 15.566,-26.269 4.258,-11.399 7.449,-21.731 9.59,-30.996 2.129,-9.27 3.75,-21.778 4.863,-37.531 1.113,-15.75 1.758,-28.485 1.945,-38.219 0.184,-9.731 0.274,-23.117 0.274,-40.168 l 0,-5.285 c 0,-15.567 -0.781,-30.575 -2.363,-45.028 -1.575,-14.453 -4.446,-29.14 -8.618,-44.054 -4.168,-14.922 -9.453,-27.848 -15.835,-38.778 -6.399,-10.937 -14.922,-19.875 -25.579,-26.828 -10.656,-6.949 -22.839,-10.418 -36.55,-10.418 -24.094,0 -47.817,12.313 -71.164,36.961 l 0,-138.699 -71.165,0" /><path
           inkscape:connector-curvature="0"
           id="path20"
           style="fill:#393536;fill-opacity:1;fill-rule:nonzero;stroke:none"
           d="m 912.313,504.895 70.609,0 0,21.398 c -0.188,9.453 -0.742,17.695 -1.672,24.746 -0.93,7.039 -2.551,14.082 -4.863,21.129 -2.324,7.035 -5.891,12.41 -10.703,16.117 -4.825,3.707 -10.75,5.563 -17.793,5.563 -7.227,0 -13.301,-1.95 -18.203,-5.84 -4.915,-3.895 -8.528,-9.496 -10.84,-16.817 -2.325,-7.32 -3.946,-14.507 -4.864,-21.55 -0.937,-7.039 -1.484,-15.465 -1.671,-25.293 l 0,-19.453 z M 947.336,286.41 c -17.231,0 -32.199,2.957 -44.895,8.887 -12.695,5.937 -22.793,13.672 -30.293,23.211 -7.507,9.543 -13.585,21.777 -18.21,36.703 -4.629,14.91 -7.833,29.832 -9.59,44.742 -1.758,14.926 -2.825,32.297 -3.196,52.121 -0.554,15.567 -0.554,31.133 0,46.699 0.559,18.536 1.809,34.981 3.75,49.344 1.953,14.363 5.332,28.309 10.149,41.836 4.812,13.527 11.07,24.645 18.765,33.356 7.688,8.711 17.786,15.707 30.293,20.988 12.512,5.281 27.102,7.922 43.782,7.922 15.195,0 28.586,-1.992 40.168,-5.977 11.582,-3.988 21.221,-10.008 28.911,-18.066 7.69,-8.059 14.07,-17.004 19.18,-26.824 5.09,-9.825 8.94,-21.731 11.54,-35.719 2.58,-13.996 4.39,-27.758 5.42,-41.285 1.01,-13.524 1.52,-29.09 1.52,-46.7 l 0,-8.339 -142.317,0 0,-17.793 c 0,-2.411 0,-6.211 0,-11.395 -0.372,-6.855 -0.418,-13.945 -0.133,-21.262 0.269,-7.324 0.593,-14.5 0.965,-21.543 0.371,-7.05 1.398,-13.757 3.054,-20.156 1.672,-6.387 3.711,-12 6.125,-16.816 2.403,-4.824 5.781,-8.614 10.137,-11.395 4.355,-2.781 9.504,-4.172 15.43,-4.172 7.414,0 13.527,1.438 18.347,4.309 4.817,2.871 8.379,7.176 10.703,12.93 2.317,5.742 3.938,11.484 4.868,17.238 0.925,5.738 1.484,12.965 1.668,21.676 l 0,15.011 70.603,0 0,-14.179 c -1.67,-37.989 -11.03,-66.711 -28.07,-86.172 -17.05,-19.453 -43.276,-29.18 -78.674,-29.18" /><path
           inkscape:connector-curvature="0"
           id="path22"
           style="fill:#393536;fill-opacity:1;fill-rule:nonzero;stroke:none"
           d="m 1086.46,291.41 0,355.805 71.17,0 0,-47.535 c 7.22,14.082 17.74,26.363 31.55,36.832 13.8,10.468 29.14,15.707 46.01,15.707 0.55,0 4.34,-0.375 11.39,-1.114 l 0,-78.664 c -13.16,5.192 -26.32,7.782 -39.47,7.782 -14.83,0 -26.79,-4.442 -35.86,-13.34 -9.08,-8.903 -13.62,-20.668 -13.62,-35.309 l 0,-240.164 -71.17,0" /><path
           inkscape:connector-curvature="0"
           id="path24"
           style="fill:#393536;fill-opacity:1;fill-rule:nonzero;stroke:none"
           d="m 1377.84,286.41 c -27.98,0 -48.32,7.129 -61.01,21.395 -12.7,14.269 -19.23,35.863 -19.6,64.777 l 0,221.266 -35.58,0 0,53.367 35.58,0 0,124.531 71.16,0 0,-124.531 53.37,0 0,-53.367 -53.37,0 0,-207.653 c 0,-14.269 1.95,-24.734 5.84,-31.406 3.9,-6.672 11.77,-10.012 23.62,-10.012 5.2,0 13.17,0.93 23.91,2.786 l 0,-57.825 c -17.79,-2.215 -32.43,-3.328 -43.92,-3.328" /><path
           inkscape:connector-curvature="0"
           id="path26"
           style="fill:#393536;fill-opacity:1;fill-rule:nonzero;stroke:none"
           d="m 1555.65,344.777 c 5.01,0 9.88,1.485 14.6,4.453 4.72,2.961 8.29,5.833 10.7,8.614 2.41,2.785 5.38,6.484 8.89,11.117 0.56,0.926 1.02,1.57 1.4,1.949 l 0,98.399 c -2.97,-2.039 -7.88,-5.184 -14.74,-9.454 -6.85,-4.257 -12.32,-7.734 -16.39,-10.417 -4.08,-2.684 -9,-6.395 -14.74,-11.125 -5.74,-4.723 -10.19,-9.266 -13.34,-13.614 -3.15,-4.363 -5.94,-9.687 -8.34,-15.984 -2.41,-6.297 -3.61,-12.879 -3.61,-19.738 0,-29.461 11.85,-44.2 35.57,-44.2 z m -35.57,-58.367 c -19.84,0 -36.65,8.563 -50.45,25.711 -13.81,17.141 -20.71,36.457 -20.71,57.949 0,17.239 2.92,32.895 8.76,46.985 5.83,14.082 11.99,25.332 18.47,33.769 6.49,8.43 17.34,17.141 32.53,26.133 15.2,8.984 26.68,15.145 34.46,18.484 7.79,3.332 21.31,8.801 40.59,16.399 3.34,1.297 5.84,2.312 7.51,3.055 l 0,25.578 c 0,17.972 -2.51,31.922 -7.51,41.836 -5,9.91 -14.36,14.871 -28.08,14.871 -12.22,0 -20.98,-4.215 -26.27,-12.645 -5.27,-8.437 -8.29,-20.062 -9.03,-34.894 -0.18,-2.039 -0.27,-5.094 -0.27,-9.168 l -71.16,0 c 0.37,34.097 9.91,61.25 28.63,81.449 18.71,20.195 44.75,30.297 78.1,30.297 33.18,0 59.26,-10.242 78.26,-30.715 18.99,-20.481 28.48,-47.492 28.48,-81.031 l 0,-160.11 c 0,-37.066 3.07,-66.718 9.18,-88.953 l -70.89,0 -9.44,53.367 c -3.71,-7.41 -6.72,-13.152 -9.03,-17.234 -2.33,-4.074 -5.71,-9.133 -10.15,-15.148 -4.45,-6.024 -8.9,-10.653 -13.35,-13.895 -4.44,-3.242 -10,-6.074 -16.68,-8.477 -6.67,-2.414 -13.99,-3.613 -21.95,-3.613" /><path
           inkscape:connector-curvature="0"
           id="path28"
           style="fill:#7b7979;fill-opacity:1;fill-rule:nonzero;stroke:none"
           d="m 728.875,1.69922 0,160.53078 63.059,0 0,-17.21 -40.129,0 0,-51.5903 28.668,0 0,-17.1992 -28.668,0 0,-74.53128 -22.93,0" /><path
           inkscape:connector-curvature="0"
           id="path30"
           style="fill:#7b7979;fill-opacity:1;fill-rule:nonzero;stroke:none"
           d="m 832.598,26.1484 c 3.078,-4.8281 8.644,-7.2578 16.707,-7.2578 8.062,0 13.629,2.4297 16.707,7.2578 3.074,4.8399 4.613,11.9727 4.613,21.4102 l 0,69.7034 c 0,9.308 -1.523,16.269 -4.566,20.867 -3.047,4.59 -8.633,6.891 -16.754,6.891 -8.125,0 -13.703,-2.301 -16.75,-6.891 -3.047,-4.598 -4.571,-11.559 -4.571,-20.867 l 0,-69.7034 c 0,-9.4375 1.539,-16.5703 4.614,-21.4102 z M 849.305,0.0898438 c -8.063,0 -14.977,1.2187462 -20.739,3.6718762 -5.765,2.44922 -10.347,6.02734 -13.75,10.74998 -3.402,4.7188 -5.882,10.25 -7.433,16.6172 -1.555,6.3594 -2.332,13.75 -2.332,22.1602 l 0,58.2309 c 0,8.429 0.777,15.769 2.332,22.039 1.551,6.269 4.031,11.722 7.433,16.339 3.403,4.633 7.985,8.114 13.75,10.442 5.762,2.332 12.676,3.488 20.739,3.488 15.644,0 26.933,-4.476 33.859,-13.43 6.93,-8.957 10.391,-21.918 10.391,-38.878 l 0,-58.2309 C 893.555,45 892.762,37.6602 891.184,31.3008 889.598,24.9492 887.105,19.3906 883.699,14.6406 880.297,9.89844 875.715,6.28906 869.953,3.80078 864.188,1.32813 857.309,0.0898438 849.305,0.0898438" /><path
           inkscape:connector-curvature="0"
           id="path32"
           style="fill:#7b7979;fill-opacity:1;fill-rule:nonzero;stroke:none"
           d="M 980.352,2.76953 C 975.035,0.929688 968.891,0 961.902,0 c -6.988,0 -13.14,0.929688 -18.457,2.76953 -5.316,1.85156 -9.687,4.44141 -13.121,7.74997 -3.437,3.3203 -6.226,7.4805 -8.379,12.5 -2.144,5.0196 -3.672,10.4414 -4.566,16.2618 -0.895,5.8203 -1.344,12.4101 -1.344,19.75 l 0,103.1987 22.93,0 0,-103.1987 c 0,-4.961 0.109,-9.1094 0.316,-12.4493 0.207,-3.3437 0.758,-6.9101 1.657,-10.7109 0.898,-3.7891 2.136,-6.8203 3.718,-9.0898 1.582,-2.2696 3.821,-4.1524 6.715,-5.6524 2.902,-1.4805 6.406,-2.2383 10.531,-2.2383 4.118,0 7.629,0.7578 10.524,2.2383 2.894,1.5 5.133,3.3828 6.719,5.6524 1.578,2.2695 2.82,5.3007 3.714,9.0898 0.895,3.8008 1.45,7.3672 1.661,10.7109 0.207,3.3399 0.312,7.4883 0.312,12.4493 l 0,103.1987 22.928,0 0,-103.1987 c 0,-7.3399 -0.44,-13.9297 -1.34,-19.75 -0.9,-5.8204 -2.42,-11.2422 -4.57,-16.2618 -2.147,-5.0195 -4.94,-9.1797 -8.373,-12.5 -3.438,-3.30856 -7.809,-5.89841 -13.125,-7.74997" /><path
           inkscape:connector-curvature="0"
           id="path34"
           style="fill:#7b7979;fill-opacity:1;fill-rule:nonzero;stroke:none"
           d="m 1033.11,1.69922 0,160.53078 17.2,0 40.13,-99.2612 0,99.2612 22.93,0 0,-160.53078 -16.3,0 -41.03,106.76978 0,-106.76978 -22.93,0" /><path
           inkscape:connector-curvature="0"
           id="path36"
           style="fill:#7b7979;fill-opacity:1;fill-rule:nonzero;stroke:none"
           d="m 1162.9,18.8906 12.64,0 c 3.76,0 6.98,0.3594 9.67,1.0391 2.69,0.6797 4.87,1.9414 6.54,3.7617 1.67,1.8203 2.99,3.5586 3.94,5.1992 0.95,1.6407 1.63,4.1914 2.01,7.6602 0.4,3.4609 0.62,6.3086 0.68,8.5508 0.06,2.2265 0.09,5.7187 0.09,10.4297 0,1.5585 0,2.7187 0,3.5 l 0,51.5897 c 0,2.93 -0.02,5.258 -0.05,6.988 -0.03,1.731 -0.12,3.782 -0.27,6.141 -0.15,2.359 -0.37,4.23 -0.67,5.59 -0.3,1.379 -0.72,2.922 -1.25,4.621 -0.54,1.699 -1.21,3.027 -2.02,3.98 -0.8,0.957 -1.79,1.957 -2.96,3 -1.16,1.047 -2.5,1.821 -4.03,2.329 -1.52,0.511 -3.3,0.929 -5.33,1.261 -2.03,0.328 -4.29,0.489 -6.8,0.489 l -12.19,0 0,-126.1294 z m -22.93,-17.19138 0,160.53078 35.57,0 c 16.77,0 28.61,-3.449 35.51,-10.308 6.9,-6.871 10.35,-18.723 10.35,-35.563 l 0,-63.0699 c 0,-17.6094 -3.51,-30.6094 -10.53,-39 -7.01,-8.39847 -18.85,-12.58988 -35.51,-12.58988 l -35.39,0" /><path
           inkscape:connector-curvature="0"
           id="path38"
           style="fill:#7b7979;fill-opacity:1;fill-rule:nonzero;stroke:none"
           d="m 1266.63,59.0313 22.93,0 -11.46,68.8007 -11.47,-68.8007 z m -34.4,-57.33208 34.4,160.53078 22.93,0 34.4,-160.53078 -22.93,0 -8.6,40.13278 -28.66,0 -8.61,-40.13278 -22.93,0" /><path
           inkscape:connector-curvature="0"
           id="path40"
           style="fill:#7b7979;fill-opacity:1;fill-rule:nonzero;stroke:none"
           d="m 1353.16,1.69922 0,140.08978 -28.67,0 0,20.441 80.26,0 0,-20.441 -28.66,0 0,-140.08978 -22.93,0" /><path
           inkscape:connector-curvature="0"
           id="path42"
           style="fill:#7b7979;fill-opacity:1;fill-rule:nonzero;stroke:none"
           d="m 1420.87,1.69922 22.9375,0 0,160.531 -22.9375,0 0,-160.531 z" /><path
           inkscape:connector-curvature="0"
           id="path44"
           style="fill:#7b7979;fill-opacity:1;fill-rule:nonzero;stroke:none"
           d="m 1496.71,26.1484 c 3.07,-4.8281 8.63,-7.2578 16.7,-7.2578 8.06,0 13.63,2.4297 16.71,7.2578 3.07,4.8399 4.61,11.9727 4.61,21.4102 l 0,69.7034 c 0,9.308 -1.52,16.269 -4.57,20.867 -3.04,4.59 -8.63,6.891 -16.75,6.891 -8.12,0 -13.71,-2.301 -16.75,-6.891 -3.04,-4.598 -4.57,-11.559 -4.57,-20.867 l 0,-69.7034 c 0,-9.4375 1.54,-16.5703 4.62,-21.4102 z m 16.7,-26.0585562 c -8.07,0 -14.97,1.2187462 -20.74,3.6718762 -5.76,2.44922 -10.34,6.02734 -13.74,10.74998 -3.41,4.7188 -5.89,10.25 -7.45,16.6172 -1.54,6.3594 -2.32,13.75 -2.32,22.1602 l 0,58.2309 c 0,8.429 0.78,15.769 2.32,22.039 1.56,6.269 4.04,11.722 7.45,16.339 3.4,4.633 7.98,8.114 13.74,10.442 5.77,2.332 12.67,3.488 20.74,3.488 15.64,0 26.93,-4.476 33.86,-13.43 6.93,-8.957 10.39,-21.918 10.39,-38.878 l 0,-58.2309 c 0,-8.2891 -0.79,-15.6289 -2.38,-21.9883 -1.57,-6.3516 -4.06,-11.9102 -7.47,-16.6602 -3.4,-4.74216 -7.99,-8.35154 -13.75,-10.83982 -5.77,-2.47265 -12.65,-3.7109362 -20.65,-3.7109362" /><path
           inkscape:connector-curvature="0"
           id="path46"
           style="fill:#7b7979;fill-opacity:1;fill-rule:nonzero;stroke:none"
           d="m 1581.39,1.69922 0,160.53078 17.2,0 40.13,-99.2612 0,99.2612 22.94,0 0,-160.53078 -16.31,0 -41.03,106.76978 0,-106.76978 -22.93,0" /><path
           inkscape:connector-curvature="0"
           id="path48"
           style="fill:#f46d1e;fill-opacity:1;fill-rule:nonzero;stroke:none"
           d="m 1319.31,1178.52 -7.74,-117.23 58.29,-63.005 1,-0.41 -84.99,-3.707 -76.99,-88.746 371.57,5.914 -261.14,267.184" /><path
           inkscape:connector-curvature="0"
           id="path50"
           style="fill:#f46d1e;fill-opacity:1;fill-rule:nonzero;stroke:none"
           d="m 2531.9,629.227 -180.56,-131.235 58.83,167.5 121.73,-36.265" /><path
           inkscape:connector-curvature="0"
           id="path52"
           style="fill:#30bbc9;fill-opacity:1;fill-rule:nonzero;stroke:none"
           d="m 2357.62,1026.8 -71.56,-181.327 -705.6,65.859 777.16,115.468" /><path
           inkscape:connector-curvature="0"
           id="path54"
           style="fill:#f46d1e;fill-opacity:1;fill-rule:nonzero;stroke:none"
           d="M 2351.34,497.992 2067.2,291.32 l 116.73,295.645 167.41,-88.973" /><path
           inkscape:connector-curvature="0"
           id="path56"
           style="fill:#145899;fill-opacity:1;fill-rule:nonzero;stroke:none"
           d="m 2280.35,847.215 -699.89,64.117 649.21,-192.453 -51.2,-128.941 172.87,-91.946 59.44,168.707 57.54,163.539 -187.97,16.977" /><path
           inkscape:connector-curvature="0"
           id="path58"
           style="fill:#ffffff;fill-opacity:1;fill-rule:nonzero;stroke:none"
           d="m 1580.52,911.324 654.75,-194.156 -51.45,-130.172 -603.3,324.285" /><path
           inkscape:connector-curvature="0"
           id="path60"
           style="fill:#30bbc9;fill-opacity:1;fill-rule:nonzero;stroke:none"
           d="M 2183.93,586.965 2067.2,291.32 1580.46,911.332 2183.93,586.965" /></g><text
         transform="scale(1,-1)"
         sodipodi:linespacing="125%"
         id="text3388"
         y="-91.629913"
         x="-63.492302"
         style="font-style:normal;font-variant:normal;font-weight:normal;font-stretch:normal;font-size:32px;line-height:125%;font-family:'Roboto Condensed';-inkscape-font-specification:'Roboto Condensed, Normal';text-align:start;letter-spacing:0px;word-spacing:0px;writing-mode:lr-tb;text-anchor:start;fill:#393536;fill-opacity:1;stroke:none;stroke-width:1px;stroke-linecap:butt;stroke-linejoin:miter;stroke-opacity:1"
         xml:space="preserve"><tspan
           style="font-style:normal;font-variant:normal;font-weight:normal;font-stretch:normal;font-size:32px;line-height:125%;font-family:'Roboto Condensed';-inkscape-font-specification:'Roboto Condensed, Normal';text-align:start;writing-mode:lr-tb;text-anchor:start"
           y="-91.629913"
           x="-63.492302"
           id="tspan3390"
           sodipodi:role="line">Supported by</tspan></text>
</g></g></svg>